<svg id="Layer_1" data-name="Layer 1" xmlns="http://www.w3.org/2000/svg" viewBox="0 0 360 600"><defs><style>.cls-1{fill:#faf6fb;}.cls-2{fill:#70aa55;}.cls-3{fill:#115b33;}.cls-4{fill:#f6a091;}.cls-5{fill:#ed8b7e;}.cls-6{fill:#111;}.cls-7{fill:#7167cb;}.cls-8{fill:#94623e;}.cls-9{fill:#87461b;}.cls-10{fill:#b16d3a;}.cls-11{fill:#b16b38;}.cls-12{fill:#f1c18b;}.cls-13{fill:#edc489;}.cls-14{fill:#ec6717;}.cls-15{fill:#facf5a;}.cls-16{fill:#fbab39;}.cls-17{fill:#498dc9;}.cls-18{fill:#6bb5e5;}.cls-19{fill:#f97673;}.cls-20{fill:#feada5;}.cls-21{fill:#00754d;}.cls-22{fill:#00a68e;}.cls-23{fill:#30292c;}.cls-24{fill:#9d5f51;}.cls-25{fill:#b18961;}.cls-26{fill:#f1330b;}.cls-27{fill:#fc724b;}.cls-28{font-size:36px;font-family:Blackboarderaser, snaps Blackboard eraser;}</style></defs><title>Artboard 1</title><rect class="cls-1" width="360" height="600"/><path class="cls-2" d="M189.53,256.61c2.64,1.15,4.55,4.32,3.46,7,3.24-.08,6,2.73,6.78,5.88s-.17,6.47-1.58,9.39c-1.66,3.42-4.59,6.81-8.4,6.81a9.59,9.59,0,0,1-3.34-.72c-5.42-2-10-6.65-11.27-12.3C173.39,264.79,180.2,252.55,189.53,256.61Z"/><path class="cls-2" d="M163.65,265.37c.52,2.59,2.27,4.92,2.25,7.56,0,5.17-6.73,8.72-6.17,13.87.44,3.95,4.84,6.06,7,9.42,2.41,3.83,1.7,9.1,4.35,12.77,2.54,3.51,7.33,4.44,11.66,4.72,2.62.17,5.57.08,7.41-1.8,2.45-2.51,1.55-6.6,1.95-10.09.51-4.48,3.35-8.28,5.54-12.21s3.81-8.83,1.77-12.84c-1.41-2.79-4.29-4.53-6.09-7.09s-2.45-5.92-3.68-8.89a14.24,14.24,0,0,0-6.76-7.69C176.52,250.15,162,257.33,163.65,265.37Z"/><path class="cls-3" d="M181.06,347.58a.53.53,0,0,1-.53-.53l-.18-81.93a.53.53,0,0,1,.53-.53h0a.53.53,0,0,1,.53.53l.18,81.93a.53.53,0,0,1-.53.53Z"/><path class="cls-3" d="M180.75,285l-10.55-8.73a.53.53,0,1,1,.67-.81l9.8,8.11L190.86,273a.53.53,0,1,1,.76.73Z"/><path class="cls-3" d="M180.77,300.78l-11.27-9.45a.53.53,0,1,1,.68-.81l10.48,8.79L192.24,286a.53.53,0,0,1,.79.69Z"/><path class="cls-2" d="M88.5,364.43c.72-3.44,6.42-4.17,8-1l.17-6.45a12.59,12.59,0,0,1,6.07,3.27c-1.67-1.54-.51-4.73,1.67-5.38s4.57.7,5.81,2.61c-1.29-3.22,3.41-6.75,6.14-4.61-.29-3.21,5-5,6.67-2.23.14-2,.71-4.19,2.37-5.33s4.54-.38,4.73,1.62c.88-2.21,2.41-4.85,4.78-4.58a5.49,5.49,0,0,1,2,.79l7.3,4.05a3.8,3.8,0,0,1,7.17-2.29c-.15-2,.83-4.18,2.69-4.87s4.35.86,4.09,2.83a16.57,16.57,0,0,1,6.57-4.5l2.64,5a12.65,12.65,0,0,1,3.5-4.55l3,5.12c2.8-2.89,8.67-1,9.27,3a3.9,3.9,0,0,1,7.77.55,26.87,26.87,0,0,1,5.38-6.82,11.85,11.85,0,0,1,.94,9.72,6.66,6.66,0,0,1,3.9-2.7l1.82,4.29c1.26-3.15,7.09-2.08,7.15,1.31a5.59,5.59,0,0,1,10.62,1.33c.52-2.61,3.94-3.71,6.44-2.79s4.22,3.17,5.81,5.3c.57-2,3.31-2.7,5.2-1.81s3,2.83,3.92,4.73c3.26-2.69,9.06-.85,10.19,3.22a6.08,6.08,0,0,1,11.53.17l3.87-1.9a8,8,0,0,1,3.09,4.75c1.31-1.41,3.78-1,5.17.32s2,3.27,2.49,5.12c.23-1.69,2.54-2.35,4.06-1.59s2.38,2.38,3.15,3.89c-.5,0-.91,1-1.41,1H74.72c-.93-1.05.14-3.51,1.46-4a6.56,6.56,0,0,1,4.11.35c-.59-1.88-.56-4.13.77-5.59S87.72,362.63,88.5,364.43Z"/><path class="cls-4" d="M343.35,246.9,333,300.23s-9.91-2.29-10.91-2.17-.62,1.63,1.87,2.63S335,304.16,335,304.16L363,235l-14.87,13.63Z"/><path class="cls-5" d="M353.72,190.9l-15.87,26.39s-9,10.13-9.49,10.37a25.3,25.3,0,0,0-2.59-.27,2.63,2.63,0,0,0-.87.3,1.9,1.9,0,0,0-.61,2.45,2.34,2.34,0,0,0,2.36,1.12,2.9,2.9,0,0,0,1.71-.95c.18.44.38.83.69.6.67-.5,11.37-8.36,13.53-10.86s17.63-23.64,17.63-23.64S356.88,187.07,353.72,190.9Z"/><path class="cls-5" d="M345.58,244.42l20.9,28.88a14.56,14.56,0,0,0,1.94,2.18l18.87,17.36s-3.59,4.87-4.72,5.12-4.87,1.75-4.87,2.25,7.75.25,7.75.25l6.76-8-19.57-25-9.06-24.15Z"/><path class="cls-4" d="M345.92,171.31a3.74,3.74,0,0,0-1.85,2.26,11.09,11.09,0,0,0-.43,3l-.17,3.25c-.12,2.22-.13,4.73,1.43,6.31,1.08,1.09,2.85.79,4.37.56a1.58,1.58,0,0,1,1.21.52,3.22,3.22,0,0,1,.66,1.11q.46,1.1.82,2.23c.52,1.62-.62,3.49-1.19,5.1,3.21-.73,5.64-3.07,8-5.37-.93-1.87-1.85-4-1.2-6a23.48,23.48,0,0,1,1.78-3.14,9.92,9.92,0,0,0,.83-4.76,9.38,9.38,0,0,0-.52-3.2,7.13,7.13,0,0,0-5.83-4.16C351.33,168.69,348.19,170.26,345.92,171.31Z"/><path class="cls-6" d="M362.3,177.68a17.68,17.68,0,0,1-4.26,7.85,10,10,0,0,1-8,3.19c0-2.26-.06-4.58-.05-6.84a2.62,2.62,0,0,0,2.52-3.47,1.94,1.94,0,0,0-1.94-1.38,3,3,0,0,0-1.75,1.35,7.4,7.4,0,0,1-1.24-5.1,7.5,7.5,0,0,1-5.54,1.13,6.55,6.55,0,0,1,.42-2.34,3.29,3.29,0,0,1,1.55-1.74,5.25,5.25,0,0,1,2.79-.23c2.54-1.39,5.61-2.63,8.4-1.86,2.42.66,4.12,2.84,5.31,5.06A26.77,26.77,0,0,1,362.3,177.68Z"/><path class="cls-7" d="M358.35,188.78l-6.52,4.4s-7.48,7.34-7.9,9.25,2.33,7.21,2.65,8.9c.16.85-.77,6.68-1.89,12.7a135.49,135.49,0,0,1-3.09,13.9c-1.27,3.29-4,12.2-4,12.2s7.74,7.62,18.87,6.46,18-4.88,18-4.88l-10-35.72S364.89,194.45,358.35,188.78Z"/><path class="cls-8" d="M250.94,281.33l-10.36,4.15,3.73,8.15s2.49-2.49,1-4.15a13.81,13.81,0,0,1-2.07-2.76l13.26-1.8Z"/><path class="cls-9" d="M237.62,259.52l-4-5.53,1,8a14.4,14.4,0,0,0,2.45-.37C237.14,261.44,237.62,259.52,237.62,259.52Z"/><path class="cls-8" d="M272.63,279.39a20.23,20.23,0,0,0,.55,6.22c.83,3,.69,10.36-1.52,11.74a11.91,11.91,0,0,1-3.73,1.66s0,1.11,1.8,1.24,8.57-6.63,8.57-6.63-.55-5,.28-6.08,8.29-5.94,8.29-5.94l-2.35-5.25-3.73-2.07Z"/><path class="cls-4" d="M355,193.12a2.42,2.42,0,0,1,3,.15c3.41,2.9,15.42,14.76,17.73,21.16a79.11,79.11,0,0,1,3.65,17.24,28.52,28.52,0,0,1,1.5,4.83c.17,1.5-1.42,5.42-2,5.33s-1.83-2.33-2-4.5a28.76,28.76,0,0,1,.17-4.83l-9-19.24S350,197,355,193.12Z"/><path class="cls-10" d="M295.57,290s-3.87-3.87-3.59-5.8,2.49-14.23-3.87-17.13-34.13-2.49-35.23-2.49-13.68-5.53-13.68-5.53l-.55-6.49s-4.56,3-2.21,7.18c0,0-5.39,2.21-5.66,2.76s-.83,2.35-.83,2.35L226.45,266a2.49,2.49,0,0,0-1.63.53c-1.52,1.66,3.73,4.15,3.73,4.15l7.18-.28s4.84,6.36,8.7,9.53a95.21,95.21,0,0,0,9.67,6.63l.83,9.12-2.76,3.18s-3.45,1-3.59,1.38,1.52,1.11,3.18,1.11,5.53-4.42,5.53-4.42l2.35-10.09s11.47-3,14.92-5.11,5.8.55,7.6,3.18,9.53,6.77,9.53,6.77l2.07,7.18s-2.07.69-2.07,1.66,4,.41,4,.41Z"/><path class="cls-11" d="M285.2,269.44s7.32-8.15,6.22-10.78-4.28-8.43-4.28-8.43,11.61.55,10.92,10.22S285.2,269.44,285.2,269.44Z"/><path class="cls-6" d="M328.51,240a2.62,2.62,0,0,1-.81-.13,2.87,2.87,0,0,1-1.92-2.15c-.42-1.94.81-7.42.86-7.65l0,0,.42-.92a.75.75,0,0,1,.56-.25,2.12,2.12,0,0,1,1.44.86c.91,1,1.62,5.29,1.49,7.73a3,3,0,0,1-.6,2A2.15,2.15,0,0,1,328.51,240Zm-1.39-9.8c-.09.4-1.24,5-.86,6.73a2.37,2.37,0,0,0,1.59,1.78,1.63,1.63,0,0,0,1.77-.3c1.08-1.28-.18-7.53-.92-8.36-.55-.61-.88-.7-1.05-.69a.31.31,0,0,0-.17.05Z"/><path class="cls-6" d="M251.07,263.69l-.92-.51c14.46-5.7,79.39-34.86,80.07-34.86v.25l.27.83C329,229.67,252,263.38,251.07,263.69Z"/><path class="cls-5" d="M326.69,229.85a1.31,1.31,0,0,0,.07,1.37,1.17,1.17,0,0,0,1,.27,4.27,4.27,0,0,0,2.34-1.51q.42-.45.82-.91a1.74,1.74,0,0,0,.41-.67c.38-1.47-1.46-1-2.15-.74A4,4,0,0,0,326.69,229.85Z"/><path class="cls-6" d="M328.2,301.19l4.67,1.69a2.85,2.85,0,0,0,.9.22c1,0,1.69-.94,2.2-1.8a10.7,10.7,0,0,1-.31,3.32.66.66,0,0,1-.23.41.65.65,0,0,1-.41.06,15.37,15.37,0,0,1-4.41-1.27l-8-3.21a3.78,3.78,0,0,1-1.27-.71,1.29,1.29,0,0,1-.39-1.32,1.58,1.58,0,0,1,1.55-.8c1.69,0,1.86.66,2.78,1.72A7,7,0,0,0,328.2,301.19Z"/><path class="cls-12" d="M244.44,279.94a74.55,74.55,0,0,0,6.24,4.48,6.9,6.9,0,0,0,.73-6.37,16.54,16.54,0,0,0-4-5.78c-2.42-2.51-4.44-5.15-7.25-7.23a17.05,17.05,0,0,0-5.82.63,2.56,2.56,0,0,1-1.44-2.53,4.8,4.8,0,0,1,.71-2.15,11.44,11.44,0,0,0-2.84,1.55c-.28.55-.83,2.35-.83,2.35L226.45,266a2.49,2.49,0,0,0-1.63.53c-1.52,1.66,3.73,4.15,3.73,4.15l7.18-.28S240.58,276.77,244.44,279.94Z"/><path class="cls-13" d="M288.5,250.4c1.31,1.82,3.44,3.23,4.42,5.44,1.41,3.19,1.48,7.11-.47,10a6.9,6.9,0,0,0-1.38,2.47,2.38,2.38,0,0,0,0,.36c3.22-1,6.65-3.21,7-8.22C298.6,252.86,291.55,250.89,288.5,250.4Z"/><path class="cls-12" d="M238.15,253.78l.21,5.26-1.49.32A4.93,4.93,0,0,1,238.15,253.78Z"/><path class="cls-6" d="M226.79,265.9l-.34.11a2.49,2.49,0,0,0-1.63.53c-.68.74,0,1.64.94,2.41Z"/><polygon class="cls-14" points="248.58 262 239.53 276.48 240.8 278.29 252.02 263.27 248.58 262"/><path class="cls-15" d="M165.05,321c0,.22,0,.43-.05.65a11,11,0,0,1-3.1,6.46c-.22.22-.44.43-.68.63a10.59,10.59,0,0,1-.9.7l-.13.09a10.64,10.64,0,0,1-1.24.72,10.46,10.46,0,0,1-3.53,1,9.94,9.94,0,0,1-1.18.07,10.55,10.55,0,0,1-2.19-.24,11.28,11.28,0,0,1-3.62-1.49,13.31,13.31,0,0,1-2.1-1.64l-.32-.32a14.52,14.52,0,0,1-2.5-3.42,10,10,0,0,1-.52-8.07,10.73,10.73,0,0,1,3.29-4.66,10.85,10.85,0,0,1,2-1.29,11.42,11.42,0,0,1,2.07-.82,11.71,11.71,0,0,1,10.77,2.35,11.35,11.35,0,0,1,2.11,2.35A11.11,11.11,0,0,1,165.05,321Z"/><path class="cls-16" d="M153.4,326.7a21.61,21.61,0,0,0,5.55,3.55,10.46,10.46,0,0,1-3.53,1,9.94,9.94,0,0,1-1.18.07,10.55,10.55,0,0,1-2.19-.24,11.28,11.28,0,0,1-3.62-1.49,13.31,13.31,0,0,1-2.1-1.64l-.32-.32a10.78,10.78,0,0,1,3.83-.4A13.13,13.13,0,0,0,153.4,326.7Z"/><path class="cls-16" d="M165.05,321c0,.22,0,.43-.05.65a11,11,0,0,1-3.1,6.46,24.43,24.43,0,0,1-4.91-3.05,13.51,13.51,0,0,0,4-3.92,8.83,8.83,0,0,0,1.64-5.17,8.11,8.11,0,0,0-1.55-4.22,11.35,11.35,0,0,1,2.11,2.35A11.11,11.11,0,0,1,165.05,321Z"/><path class="cls-17" d="M161.9,328.11l-.3.3-.37.34a10.59,10.59,0,0,1-.9.7l-.13.09-.54.34-.23.13-.21.11-.27.14a21.61,21.61,0,0,1-5.55-3.55,14,14,0,0,0,3.59-1.64A24.43,24.43,0,0,0,161.9,328.11Z"/><path class="cls-18" d="M157,325.06a14,14,0,0,1-3.59,1.64,20.86,20.86,0,0,1-2.81-3,21.51,21.51,0,0,1-4.32-12.18,10.85,10.85,0,0,1,2-1.29,24.42,24.42,0,0,0,5,11.11A24,24,0,0,0,157,325.06Z"/><path class="cls-19" d="M61.87,281.61a.75.75,0,0,1-.24.54,9.26,9.26,0,0,1,3-1.88c.44-.16,1-.28,1.32.1a.87.87,0,0,1,.17.76,2.26,2.26,0,0,1-.83,1.14q-3,2.69-6.12,5.33a.82.82,0,0,1-.52.26.75.75,0,0,1-.55-.41,2.32,2.32,0,0,1,0-3.09,31,31,0,0,1,3.16-3A.33.33,0,0,1,61.87,281.61Z"/><path class="cls-19" d="M35.43,279.65a46.62,46.62,0,0,0-1.18,7.45,5.68,5.68,0,0,1-5-2.43l3.92-5.94"/><path class="cls-20" d="M67.76,307.47a.75.75,0,0,1-.53.27,9.26,9.26,0,0,1,3.55.48c.44.15.94.4,1,.91a.87.87,0,0,1-.35.7,2.26,2.26,0,0,1-1.37.35q-4.05.16-8.11.25a.82.82,0,0,1-.56-.13.75.75,0,0,1-.16-.66c.15-1.29.71-2.19,2-2.38a31,31,0,0,1,4.34-.32A.33.33,0,0,1,67.76,307.47Z"/><path class="cls-20" d="M40.16,272.52c.65,3.22.73,5.46,0,7-1.35,2.59-5.27,3-7.61,1.22s-3.24-4.9-3.12-7.82c.15-3.64,4.18-10.59,8.63-6.88a7.34,7.34,0,0,1,2,4.36,8.31,8.31,0,0,0,.2,1.75c.33,1,.82,2,1.23,2.92a.56.56,0,0,1,.06.26.52.52,0,0,1-.28.35,2.93,2.93,0,0,1-3.36-.23"/><path class="cls-21" d="M43.34,357.29a169.2,169.2,0,0,0-.61,20.29A1.3,1.3,0,0,0,44,378.85l3.2.12a1.3,1.3,0,0,0,1.32-1l5-22.56a6.5,6.5,0,0,0-.2-3.52c-1.89-5.5-8-22.58-13.82-30.72-1-1.38-8.68,6.29-9.31,7.16-1.56,2.16-3.11,4.28-1.57,6.52,5,7.29,9.34,12.43,13.43,17.69A6.51,6.51,0,0,1,43.34,357.29Z"/><path class="cls-17" d="M60.44,287.1l-8.16,7.76a21.35,21.35,0,0,1-10.84,5.53l-2.58.46c-5.14.87-11.38,1.67-15.61,1.35-1.18-.09.62-7.46.92-8.15a12.37,12.37,0,0,0,.18-3.83,37.53,37.53,0,0,1,2.26-3.78c2.16.89,4.24,1.77,6.22,2.57a21.14,21.14,0,0,0,3.6,1.11,21.37,21.37,0,0,0,15.87-2.82c2.45-1.54,4.71-2.86,5.84-3.51a.91.91,0,0,1,1.21.29l1.23,1.87A.91.91,0,0,1,60.44,287.1Z"/><path class="cls-22" d="M16.3,352.59a169.18,169.18,0,0,0-14.8,13.9,1.3,1.3,0,0,0,0,1.78l2.18,2.35a1.3,1.3,0,0,0,1.65.21l19.49-12.41a6.5,6.5,0,0,0,2.35-2.63c2.56-5.23,10.33-21.62,12-31.48.28-1.68-10.59-1.71-11.65-1.54-2.63.42-5.23.82-5.72,3.49-1.61,8.71-2.21,15.39-3,22A6.51,6.51,0,0,1,16.3,352.59Z"/><path class="cls-21" d="M37.27,326.24c-.43,1.54-3.08,2.54-4.4,3-2.14.68-4.43,1-6.34,2.18-4,2.47-5,7.68-6.87,12a9,9,0,0,1-.49.94c.62-5.34,1.26-11,2.52-17.89.49-2.67,3.09-3.08,5.72-3.5a51.84,51.84,0,0,1,7.49.16C36.15,323.76,37.7,324.72,37.27,326.24Z"/><path class="cls-18" d="M42.79,324.41a1.3,1.3,0,0,1-1.09,1.38,85.63,85.63,0,0,1-16.61.93q-2.61-.11-5.2-.37a1.3,1.3,0,0,1-1.16-1.29c0-7.41-.35-14.85,1.35-22.06.2-.84.39-1.67.58-2.51h0a39,39,0,0,1,2.67-8.28c.27-.55.6-1.23,1-2a37.53,37.53,0,0,1,2.26-3.78c.16-.23.32-.45.48-.67a8.69,8.69,0,0,1,3.77-3.27,2.58,2.58,0,0,1,1.66,0c2.34.83,3.24,5.27,3.89,7.53l0,.09v0c1,3.44,1.44,6.72,2.28,10.12l.14.57c.09.37.19.73.3,1.11.36,1.27.69,2.53,1,3.79a109.65,109.65,0,0,1,2.51,16.92Q42.73,323.53,42.79,324.41Z"/><path class="cls-23" d="M43.14,382.06a2.69,2.69,0,0,0,1.38.92,39.67,39.67,0,0,0,4.29.78c1.49.29,3,.7,4.51.88a.88.88,0,0,0,.63-1.57l-.35-.26c-1.59-1.11-5-2.93-6.75-3.85-.87-.47-2.33-1.22-3.18-.36a3,3,0,0,0-.61,3.32Z"/><path class="cls-23" d="M-1,370.08a2.69,2.69,0,0,0,.23,1.64,39.68,39.68,0,0,0,2.28,3.71c.78,1.3,1.48,2.71,2.35,3.94a.88.88,0,0,0,1.59-.57c0-.15,0-.29,0-.43-.23-1.92-1.18-5.72-1.63-7.6-.23-1-.65-2.55-1.85-2.61A3,3,0,0,0-1,369.92Z"/><path class="cls-17" d="M42.66,322.66a3.68,3.68,0,0,1-1.55-.56c-2.92-1.81-4.1-5.41-5.07-8.71a29.41,29.41,0,0,0-1.59-4.46c-.63-1.32-1.75-2.24-2.42-3.46-1.6-2.89,5.22-1.25,6.51-.65a10.54,10.54,0,0,1,1.61.92A109.65,109.65,0,0,1,42.66,322.66Z"/><path class="cls-18" d="M56.68,306c3,.26,5.68.59,7,.76a.94.94,0,0,1,.82,1l-.16,2.31a.94.94,0,0,1-.84.87l-11.6,1.29A22.13,22.13,0,0,1,39.5,310c-5.15-2.6-12.28-6.49-16.14-9.92-.92-.82,5.19-5.76,5.86-6.15,1.67-1,5-7.78,6-6.09,1.52,2.55,2.94,5,4.31,7.36A22.16,22.16,0,0,0,56.68,306Z"/><path class="cls-17" d="M32.51,282.49c-.34.27-.67.51-.92.73a23.72,23.72,0,0,0-5.11,7.27c-4.46,9.11-3.72,19.89-1.64,29.82.45,2.11.91,4.43.25,6.41q-2.61-.11-5.2-.37a1.3,1.3,0,0,1-1.16-1.29c0-7.41-.35-14.85,1.35-22.06.2-.84.39-1.67.58-2.51h0a39,39,0,0,1,2.67-8.28,41.75,41.75,0,0,1,3.74-6.45,8.69,8.69,0,0,1,3.77-3.27A2.58,2.58,0,0,1,32.51,282.49Z"/><path class="cls-23" d="M38.14,269.46a17.6,17.6,0,0,0-2.56.65,5.11,5.11,0,0,0-3,3.75c-.21,1.17-.1,2.6-1.13,3.27a2,2,0,0,1-2.22-.15,4.42,4.42,0,0,1-1.45-3.4,10.94,10.94,0,0,1,.75-5.35,6.25,6.25,0,0,1,3.91-3.55,15.11,15.11,0,0,1,4.18-.12,6.78,6.78,0,0,0,2.57-.4,1.3,1.3,0,0,1,1.72,1C41.23,267.17,40.9,268.79,38.14,269.46Z"/><path class="cls-20" d="M40,270.65a3.19,3.19,0,0,0-2.88-1.84A4,4,0,0,0,34,270.4a5.11,5.11,0,0,0-1,2.76.54.54,0,0,1-.53.51,1.36,1.36,0,0,0-1.25.94,1.61,1.61,0,0,0,1,1.82,2.1,2.1,0,0,0,2.1-.39"/><path class="cls-24" d="M198.85,367.61a45.26,45.26,0,0,1-.07,7.32,5.51,5.51,0,0,0,5.2-1.52l-2.8-6.31"/><path class="cls-25" d="M195.46,360c-1.14,3-1.57,5.11-1.07,6.67.87,2.7,4.57,3.68,7.09,2.38s3.89-4.17,4.24-7c.44-3.51-2.31-10.8-7.16-8a7.13,7.13,0,0,0-2.63,3.85,8.06,8.06,0,0,1-.47,1.64c-.47.9-1.1,1.74-1.65,2.6a.54.54,0,0,0-.1.23.5.5,0,0,0,.21.38,2.85,2.85,0,0,0,3.25.31"/><path class="cls-26" d="M190.16,464.44l-2,.09a1.26,1.26,0,0,1-1.32-1.29c.19-7.73,1.43-46.27,7.51-54.8,1-1.34,8.43,6.11,9,6.95,1.51,2.09,3,4.16,1.52,6.32-5,7.28-12.19,36.22-13.54,41.77A1.26,1.26,0,0,1,190.16,464.44Z"/><path class="cls-27" d="M242.17,447.4l-.63,1.14a1.26,1.26,0,0,1-1.31.64l-23.95-3.82a6.32,6.32,0,0,1-4.24-2.7C208.24,437,198.58,422.17,196,412.3c-.17-.65,1.57-.86,3.78-.87,3.2,0,7.36.35,8,.36,2.58,0,5.13.07,6,2.56,2.31,6.87,3.74,12.45,5.16,17.77.24.91.48,1.8.73,2.7a6.32,6.32,0,0,0,3.61,4.14c6,2.57,14.83,5.5,18.26,6.62A1.26,1.26,0,0,1,242.17,447.4Z"/><path class="cls-23" d="M191,467.55a2.61,2.61,0,0,1-1.33.89,38.47,38.47,0,0,1-4.16.76c-1.44.28-2.91.68-4.38.85a.85.85,0,0,1-.61-1.52l.34-.25c1.54-1.07,4.9-2.85,6.55-3.74.84-.45,2.26-1.18,3.09-.35a2.87,2.87,0,0,1,.59,3.22Z"/><path class="cls-24" d="M168,369.63a.62.62,0,0,0,.27.42,7.67,7.67,0,0,0-2.73-1.16c-.38-.08-.84-.11-1.07.24a.72.72,0,0,0,0,.64,1.87,1.87,0,0,0,.82.83q2.82,1.83,5.67,3.6a.68.68,0,0,0,.45.15c.19,0,.32-.22.4-.4a1.72,1.72,0,0,0-.52-2.35,26.05,26.05,0,0,0-2.85-2.24A.27.27,0,0,0,168,369.63Z"/><path class="cls-24" d="M180.26,376.85l-9.19-5.47-1.58,1.82,9.94,7.93a12.64,12.64,0,0,0,7.29,2.54l1.93,0c2.92.05,5.85,0,8.77-.09,1.43-.07,2.85-.16,4.27-.32a4.33,4.33,0,0,0,3.81-3c.62-2.28-.61-4.57-3.16-4.26a9.57,9.57,0,0,0-2.57.82,25.69,25.69,0,0,1-7.88,1.67l-3.55.32A12.63,12.63,0,0,1,180.26,376.85Z"/><path class="cls-26" d="M218.85,432.13a4,4,0,0,1-3.42-1.1c-4.42-3.74-4.9-10.71-9.27-14.51-1.62-1.41-5.35-2.42-6.23-4.42a2.6,2.6,0,0,1-.2-.66c3.2,0,7.36.35,8,.36,2.58,0,5.13.07,6,2.56C216,421.23,217.43,426.81,218.85,432.13Z"/><path class="cls-23" d="M245.78,448.11a2.61,2.61,0,0,1,0,1.61,38.49,38.49,0,0,1-1.67,3.88c-.57,1.36-1,2.8-1.72,4.11a.85.85,0,0,1-1.61-.33c0-.14,0-.28,0-.42,0-1.88.35-5.65.52-7.52.09-.95.27-2.54,1.42-2.76a2.87,2.87,0,0,1,3,1.29Z"/><path class="cls-15" d="M218.42,412.65c-.21,1.65-4.46,2.22-9.54,2.07-7.18-.21-16-1.86-17.33-3.89s-.16-5.87,1-9.06c.5-1.41,1-2.7,1.21-3.7a130.28,130.28,0,0,0,2.58-14.89c0-.26.06-.52.09-.78a21.07,21.07,0,0,1,1.28-6.29,6.47,6.47,0,0,1,4.68-4c2.55-.36,4.2,1.46,5.19,3.8a14.5,14.5,0,0,1,.58,1.66,37.1,37.1,0,0,1,1.46,9.46,29.37,29.37,0,0,0,4.36,14.92C216,405.31,218.92,408.73,218.42,412.65Z"/><path class="cls-16" d="M202.79,386.67a40.11,40.11,0,0,1-3.2,3.32,22.42,22.42,0,0,0-5.25,8.73,6.61,6.61,0,0,1-1.2,2.58,2.28,2.28,0,0,1-.61.46c.5-1.41,1-2.7,1.21-3.7a130.28,130.28,0,0,0,2.58-14.89,9.71,9.71,0,0,1,6.06-1.89C205.6,381.46,204,385.15,202.79,386.67Z"/><path class="cls-25" d="M164,390.23a.68.68,0,0,0,.49.24,8.44,8.44,0,0,0-3.23.43c-.41.14-.86.37-.88.83a.79.79,0,0,0,.32.64,2.06,2.06,0,0,0,1.25.32q3.7.15,7.39.23a.75.75,0,0,0,.51-.12.68.68,0,0,0,.15-.61,1.89,1.89,0,0,0-1.81-1.93,28.71,28.71,0,0,0-4-.53A.3.3,0,0,0,164,390.23Z"/><path class="cls-25" d="M179.58,390.21l-11.78,0-.48,2.61,13.87,1.92a13.92,13.92,0,0,0,8.33-1.69l1.86-1c2.8-1.59,5.57-3.25,8.26-5,1.31-.86,2.61-1.76,3.86-2.7a4.77,4.77,0,0,0,1.94-5c-.69-2.51-3.14-4-5.38-2.26a10.54,10.54,0,0,0-2,2.22,28.28,28.28,0,0,1-6.53,6l-3.18,2.3A13.91,13.91,0,0,1,179.58,390.21Z"/><path class="cls-16" d="M218.42,412.65c-.21,1.65-4.46,2.22-9.54,2.07-.09-1.51,0-3.1-.12-4.56-.43-7-5.15-13.37-4.59-20.35.28-3.44,1.83-6.62,2.76-9.94a15.85,15.85,0,0,0,.61-4,14.5,14.5,0,0,1,.58,1.66,37.1,37.1,0,0,1,1.46,9.46,29.37,29.37,0,0,0,4.36,14.92C216,405.31,218.92,408.73,218.42,412.65Z"/><path class="cls-25" d="M200.37,362.07a1.32,1.32,0,0,1,1.47.4,1.56,1.56,0,0,1-.21,2,2,2,0,0,1-2,.4"/><path class="cls-23" d="M196.57,359.47c1,.8,2.38.63,3.67.74,3.3.29,3.53,3.81,3.6,4.4a1.34,1.34,0,0,0,1.08,1.23,1.67,1.67,0,0,0,1.06-.41,6.68,6.68,0,0,0-2.4-11.87,9.3,9.3,0,0,0-6.75,1.38,2.51,2.51,0,0,0-1.57,2.2A3.06,3.06,0,0,0,196.57,359.47Z"/><path class="cls-23" d="M205.62,354.26c2.61-4.5,9.49-3,10.26,2.12.3,2,.07,3.91.45,5.91a9.69,9.69,0,0,0,5,6.71,9.83,9.83,0,0,0,6,1.14,1.26,1.26,0,0,1,1.3,1.92,7.79,7.79,0,0,1-12.83.44c-2.1-2.82-2.2-6.89-4.73-9.34-1.3-1.26-3.07-1.9-4.47-3A4.36,4.36,0,0,1,205.62,354.26Z"/><path class="cls-25" d="M202.23,361.18a1.32,1.32,0,0,1,1.52-.1,1.56,1.56,0,0,1,.45,1.94,2,2,0,0,1-1.79,1"/><path class="cls-19" d="M132.94,358.18a1.16,1.16,0,0,1,.5.2.44.44,0,0,1,.15.49c-.11.25-.46.26-.73.25a5.89,5.89,0,0,0-4.12,1.48c-.84.74-2.16,3.21-3.19,1.19C123.94,358.61,131.21,357.79,132.94,358.18Z"/><path class="cls-23" d="M105.33,379.75a22.1,22.1,0,0,0-7.07,9.65,1.3,1.3,0,0,0,1.88,1.58,16.69,16.69,0,0,1,2.12-1.08c2-.87,4.18-1.47,6.12-2.52a14.6,14.6,0,0,0,5.65-5.54Z"/><path class="cls-23" d="M120.41,358.74a12.56,12.56,0,0,1-1.71-5.68.42.42,0,0,1,.74-.3,8.13,8.13,0,0,0,2.52,1.9.42.42,0,0,0,.55-.6,6.06,6.06,0,0,1-.65-1.52,9.56,9.56,0,0,1-.31-1.92.42.42,0,0,1,.71-.33,8.1,8.1,0,0,0,4.34,2.14Z"/><path class="cls-23" d="M128.4,369.56c2,1.13,4.51.78,6.8,1.13a11.07,11.07,0,0,1,3.49,1.16,1.3,1.3,0,0,1-.62,2.46,50.07,50.07,0,0,0-11.21,1.5Z"/><path class="cls-25" d="M135.67,351.47a25.55,25.55,0,0,1-7.51,7.13l-1,.66a.4.4,0,0,0,.17.73,14.44,14.44,0,0,0,2.08.1,14.86,14.86,0,0,0,1.7-.13,1.3,1.3,0,0,1,1.2,2.07,7.06,7.06,0,0,0-1.65,4c0,.5-.06,1-.1,1.51-.07.88-.17,1.76-.32,2.63a21.23,21.23,0,0,1-1,3.87c-.09.26-.19.52-.29.77s-.16.38-.25.57c-2.21,4.75-6.09,6.16-10.12,7.11a17,17,0,0,1-3.12.45,20.34,20.34,0,0,1-2.15,0c-2.61-.13-4.89-.62-7.81,0a15.59,15.59,0,0,0-2.1.59,15.37,15.37,0,0,0-2.93,1.49c-2.48,1.55-4.8,3.48-7.68,3.68a9.23,9.23,0,0,1-7.1-3.2,22.13,22.13,0,0,1-3-4.38,1.3,1.3,0,0,1,1.52-1.88l1.09.31c7,1.87,14.7,1.4,20.53-2.75,3.79-2.7,6.46-6.68,8.85-10.66,1.57-2.61,3.07-5.29,4.83-7.76h0l.41-.56a30.59,30.59,0,0,1,2.64-3.15,14.74,14.74,0,0,1,3.19-2.43,21.78,21.78,0,0,1,7.88-2.68l.84-.09a1.26,1.26,0,0,1,.93.29h0A1.32,1.32,0,0,1,135.67,351.47Z"/><path class="cls-25" d="M127.64,368c2.31.17,4.42-1.2,6.64-1.85a11.07,11.07,0,0,1,3.7-.43,1.3,1.3,0,0,1,.43,2.49,50.08,50.08,0,0,0-9.53,6.1Z"/><path class="cls-25" d="M107.69,380a22.1,22.1,0,0,0-5.16,10.79,1.3,1.3,0,0,0,2.14,1.2,16.69,16.69,0,0,1,1.89-1.45c1.83-1.23,3.84-2.22,5.54-3.61a14.6,14.6,0,0,0,4.52-6.49Z"/><path class="cls-23" d="M133.83,349.3a1,1,0,0,0-.22.32c-.31.81.76,1.5,1.42,1a1,1,0,0,0,.13-1.42.92.92,0,0,0-.72-.27A1.06,1.06,0,0,0,133.83,349.3Z"/><path class="cls-23" d="M119.51,358.39c-.06.18-.14.4-.23.69a19.73,19.73,0,0,0-.67,2.65,36.58,36.58,0,0,1-.89,5.68c-1,3.08-3.5,5.42-6.1,7.34a94.24,94.24,0,0,1-11.09,6.69c-2.65,1.44-5.54,2.92-8.52,2.48-2.7-.39-4.89-2.29-6.72-4.36,7,1.87,14.7,1.4,20.53-2.75,3.79-2.7,6.46-6.68,8.85-10.66C116.25,363.55,117.75,360.87,119.51,358.39Z"/><text class="cls-28" transform="translate(115.42 182.65)">ㄱ ㅐ 모임</text></svg>